<?xml version="1.0" encoding="UTF-8" standalone="no"?>
<!DOCTYPE svg PUBLIC "-//W3C//DTD SVG 1.1//EN"
 "http://www.w3.org/Graphics/SVG/1.1/DTD/svg11.dtd">
<!-- Generated by graphviz version 2.38.0 (20140413.2041)
 -->
<!-- Title: G Pages: 1 -->
<svg width="525pt" height="152pt"
 viewBox="0.00 0.00 525.00 152.00" xmlns="http://www.w3.org/2000/svg" xmlns:xlink="http://www.w3.org/1999/xlink">
<g id="graph0" class="graph" transform="scale(1 1) rotate(0) translate(4 148)">
<title>G</title>
<!-- BPP -->
<g id="node1" class="node"><title>BPP</title>
<text text-anchor="middle" x="117" y="-68.3" font-family="Fira Sans" font-size="14.00">BPP</text>
</g>
<!-- P/poly -->
<g id="node2" class="node"><title>P/poly</title>
<text text-anchor="middle" x="209" y="-122.3" font-family="Fira Sans" font-size="14.00">P/poly</text>
</g>
<!-- BPP&#45;&gt;P/poly -->
<g id="edge1" class="edge"><title>BPP&#45;&gt;P/poly</title>
<path fill="none" stroke="black" d="M144.032,-87.619C153.844,-93.5062 165.128,-100.277 175.461,-106.477"/>
<polygon fill="black" stroke="black" points="174.636,-108.023 179.824,-109.095 176.437,-105.021 174.636,-108.023"/>
</g>
<!-- MA -->
<g id="node5" class="node"><title>MA</title>
<text text-anchor="middle" x="209" y="-14.3" font-family="Fira Sans" font-size="14.00">MA</text>
</g>
<!-- BPP&#45;&gt;MA -->
<g id="edge4" class="edge"><title>BPP&#45;&gt;MA</title>
<path fill="none" stroke="black" d="M144.032,-56.381C154.389,-50.1668 166.387,-42.968 177.174,-36.4955"/>
<polygon fill="black" stroke="black" points="178.328,-37.8442 181.715,-33.771 176.527,-34.8429 178.328,-37.8442"/>
</g>
<!-- BQP -->
<g id="node6" class="node"><title>BQP</title>
<text text-anchor="middle" x="209" y="-68.3" font-family="Fira Sans" font-size="14.00">BQP</text>
</g>
<!-- BPP&#45;&gt;BQP -->
<g id="edge6" class="edge"><title>BPP&#45;&gt;BQP</title>
<path fill="none" stroke="black" d="M144.032,-72C154.204,-72 165.959,-72 176.595,-72"/>
<polygon fill="black" stroke="black" points="176.715,-73.7501 181.715,-72 176.715,-70.2501 176.715,-73.7501"/>
</g>
<!-- P -->
<g id="node3" class="node"><title>P</title>
<text text-anchor="middle" x="27" y="-41.3" font-family="Fira Sans" font-size="14.00">P</text>
</g>
<!-- P&#45;&gt;BPP -->
<g id="edge5" class="edge"><title>P&#45;&gt;BPP</title>
<path fill="none" stroke="black" stroke-dasharray="5,2" d="M54.4029,-53.1009C64.0616,-56.0643 75.0747,-59.4434 85.0918,-62.5168"/>
<polygon fill="black" stroke="black" points="84.6256,-64.2042 89.919,-63.9979 85.6523,-60.8582 84.6256,-64.2042"/>
</g>
<!-- NP -->
<g id="node4" class="node"><title>NP</title>
<text text-anchor="middle" x="117" y="-14.3" font-family="Fira Sans" font-size="14.00">NP</text>
</g>
<!-- P&#45;&gt;NP -->
<g id="edge2" class="edge"><title>P&#45;&gt;NP</title>
<path fill="none" stroke="black" d="M54.4029,-36.8991C64.0616,-33.9357 75.0747,-30.5566 85.0918,-27.4832"/>
<polygon fill="black" stroke="black" points="85.6523,-29.1418 89.919,-26.0021 84.6256,-25.7958 85.6523,-29.1418"/>
</g>
<!-- NP&#45;&gt;MA -->
<g id="edge3" class="edge"><title>NP&#45;&gt;MA</title>
<path fill="none" stroke="black" stroke-dasharray="5,2" d="M144.032,-18C154.204,-18 165.959,-18 176.595,-18"/>
<polygon fill="black" stroke="black" points="176.715,-19.7501 181.715,-18 176.715,-16.2501 176.715,-19.7501"/>
</g>
<!-- QMA -->
<g id="node7" class="node"><title>QMA</title>
<text text-anchor="middle" x="301" y="-41.3" font-family="Fira Sans" font-size="14.00">QMA</text>
</g>
<!-- MA&#45;&gt;QMA -->
<g id="edge10" class="edge"><title>MA&#45;&gt;QMA</title>
<path fill="none" stroke="black" d="M236.032,-25.8095C246.296,-28.8889 258.172,-32.4517 268.885,-35.6655"/>
<polygon fill="black" stroke="black" points="268.423,-37.3539 273.715,-37.1145 269.429,-34.0015 268.423,-37.3539"/>
</g>
<!-- BQP&#45;&gt;QMA -->
<g id="edge7" class="edge"><title>BQP&#45;&gt;QMA</title>
<path fill="none" stroke="black" d="M236.032,-64.1905C246.296,-61.1111 258.172,-57.5483 268.885,-54.3345"/>
<polygon fill="black" stroke="black" points="269.429,-55.9985 273.715,-52.8855 268.423,-52.6461 269.429,-55.9985"/>
</g>
<!-- PP -->
<g id="node8" class="node"><title>PP</title>
<text text-anchor="middle" x="391" y="-41.3" font-family="Fira Sans" font-size="14.00">PP</text>
</g>
<!-- QMA&#45;&gt;PP -->
<g id="edge8" class="edge"><title>QMA&#45;&gt;PP</title>
<path fill="none" stroke="black" d="M328.403,-45C337.974,-45 348.875,-45 358.818,-45"/>
<polygon fill="black" stroke="black" points="358.919,-46.7501 363.919,-45 358.919,-43.2501 358.919,-46.7501"/>
</g>
<!-- PSPACE -->
<g id="node9" class="node"><title>PSPACE</title>
<text text-anchor="middle" x="485.5" y="-41.3" font-family="Fira Sans" font-size="14.00">PSPACE</text>
</g>
<!-- PP&#45;&gt;PSPACE -->
<g id="edge9" class="edge"><title>PP&#45;&gt;PSPACE</title>
<path fill="none" stroke="black" d="M418.259,-45C427.72,-45 438.563,-45 448.699,-45"/>
<polygon fill="black" stroke="black" points="448.924,-46.7501 453.924,-45 448.924,-43.2501 448.924,-46.7501"/>
</g>
</g>
</svg>
